<svg xmlns="http://www.w3.org/2000/svg" width="30" height="44" viewBox="0 0 30 44" fill="none">
<path d="M15 0C10.483 0 6.81818 3.69531 6.81818 8.25V22C6.81818 26.5547 10.483 30.25 15 30.25C19.517 30.25 23.1818 26.5547 23.1818 22V8.25C23.1818 3.69531 19.517 0 15 0ZM4.09091 18.5625C4.09091 17.4195 3.17898 16.5 2.04545 16.5C0.911932 16.5 0 17.4195 0 18.5625V22C0 29.657 5.64205 35.982 12.9545 36.9875V39.875H8.86364C7.73011 39.875 6.81818 40.7945 6.81818 41.9375C6.81818 43.0805 7.73011 44 8.86364 44H15H21.1364C22.2699 44 23.1818 43.0805 23.1818 41.9375C23.1818 40.7945 22.2699 39.875 21.1364 39.875H17.0455V36.9875C24.358 35.982 30 29.657 30 22V18.5625C30 17.4195 29.0881 16.5 27.9545 16.5C26.821 16.5 25.9091 17.4195 25.9091 18.5625V22C25.9091 28.0758 21.0256 33 15 33C8.97443 33 4.09091 28.0758 4.09091 22V18.5625Z" fill="#CDC5FF"/>
</svg>