<svg xmlns="http://www.w3.org/2000/svg" width="50" height="43" viewBox="0 0 50 43" fill="none">
  <path d="M24.9982 0C26.385 0 27.6644 0.719866 28.3676 1.90045L49.4628 37.2219C50.1758 38.4121 50.1758 39.8806 49.4824 41.0708C48.789 42.2609 47.49 43 46.0934 43H3.90292C2.50634 43 1.20742 42.2609 0.51401 41.0708C-0.179399 39.8806 -0.169632 38.4025 0.533543 37.2219L21.6288 1.90045C22.332 0.719866 23.6114 0 24.9982 0ZM24.9982 12.2857C23.6993 12.2857 22.6543 13.3127 22.6543 14.5893V25.3393C22.6543 26.6158 23.6993 27.6429 24.9982 27.6429C26.2971 27.6429 27.3421 26.6158 27.3421 25.3393V14.5893C27.3421 13.3127 26.2971 12.2857 24.9982 12.2857ZM28.1234 33.7857C28.1234 32.9711 27.7941 32.1899 27.2081 31.6139C26.622 31.0379 25.827 30.7143 24.9982 30.7143C24.1693 30.7143 23.3744 31.0379 22.7883 31.6139C22.2022 32.1899 21.873 32.9711 21.873 33.7857C21.873 34.6003 22.2022 35.3815 22.7883 35.9575C23.3744 36.5335 24.1693 36.8571 24.9982 36.8571C25.827 36.8571 26.622 36.5335 27.2081 35.9575C27.7941 35.3815 28.1234 34.6003 28.1234 33.7857Z" fill="#FFBE17"/>
</svg>